<?xml version="1.0" encoding="UTF-8" standalone="no"?>
<!DOCTYPE svg PUBLIC "-//W3C//DTD SVG 1.1//EN"
 "http://www.w3.org/Graphics/SVG/1.1/DTD/svg11.dtd">
<!-- Generated by graphviz version 2.43.0 (0)
 -->
<!-- Title: %3 Pages: 1 -->
<svg width="803pt" height="165pt"
 viewBox="0.00 0.00 803.00 164.74" xmlns="http://www.w3.org/2000/svg" xmlns:xlink="http://www.w3.org/1999/xlink">
<g id="graph0" class="graph" transform="scale(1 1) rotate(0) translate(36 128.74)">
<title>%3</title>
<polygon fill="dimgray" stroke="transparent" points="-36,36 -36,-128.74 767,-128.74 767,36 -36,36"/>
<text text-anchor="middle" x="365.5" y="-77.54" font-family="Helvetica,sans-Serif" font-size="14.00">Sweep&#39;s Plan &amp; Progress</text>
<!-- start -->
<g id="node1" class="node">
<title>start</title>
</g>
<!-- ba5fa0c1&#45;da18&#45;4130&#45;a5a1&#45;15a52c7e5e29 -->
<g id="node3" class="node">
<title>ba5fa0c1&#45;da18&#45;4130&#45;a5a1&#45;15a52c7e5e29</title>
<ellipse fill="yellow" stroke="black" cx="198.5" cy="-26.87" rx="146.24" ry="26.74"/>
<text text-anchor="middle" x="198.5" y="-30.67" font-family="Helvetica,sans-Serif" font-size="14.00">⋯ Modify</text>
<text text-anchor="middle" x="198.5" y="-15.67" font-family="Helvetica,sans-Serif" font-size="14.00">cypress/e2e/basic_test.cy.js</text>
</g>
<!-- start&#45;&gt;ba5fa0c1&#45;da18&#45;4130&#45;a5a1&#45;15a52c7e5e29 -->
<g id="edge2" class="edge">
<title>start&#45;&gt;ba5fa0c1&#45;da18&#45;4130&#45;a5a1&#45;15a52c7e5e29</title>
<path fill="none" stroke="black" d="M1.07,-26.87C4.22,-26.87 20.16,-26.87 41.72,-26.87"/>
<polygon fill="black" stroke="black" points="42.01,-30.37 52.01,-26.87 42.01,-23.37 42.01,-30.37"/>
<text text-anchor="middle" x="26.56" y="-33.67" font-family="Helvetica,sans-Serif" font-size="14.00">Start</text>
</g>
<!-- end -->
<g id="node2" class="node">
<title>end</title>
</g>
<!-- 06e22867&#45;40a8&#45;4602&#45;8173&#45;d23e94fc6b58 -->
<g id="node4" class="node">
<title>06e22867&#45;40a8&#45;4602&#45;8173&#45;d23e94fc6b58</title>
<ellipse fill="white" stroke="black" cx="526.5" cy="-26.87" rx="146.24" ry="26.74"/>
<text text-anchor="middle" x="526.5" y="-30.67" font-family="Helvetica,sans-Serif" font-size="14.00">▶ Modify</text>
<text text-anchor="middle" x="526.5" y="-15.67" font-family="Helvetica,sans-Serif" font-size="14.00">cypress/e2e/basic_test.cy.js</text>
</g>
<!-- ba5fa0c1&#45;da18&#45;4130&#45;a5a1&#45;15a52c7e5e29&#45;&gt;06e22867&#45;40a8&#45;4602&#45;8173&#45;d23e94fc6b58 -->
<g id="edge1" class="edge">
<title>ba5fa0c1&#45;da18&#45;4130&#45;a5a1&#45;15a52c7e5e29&#45;&gt;06e22867&#45;40a8&#45;4602&#45;8173&#45;d23e94fc6b58</title>
<path fill="none" stroke="black" d="M344.88,-26.87C353.2,-26.87 361.53,-26.87 369.85,-26.87"/>
<polygon fill="black" stroke="black" points="370,-30.37 380,-26.87 370,-23.37 370,-30.37"/>
</g>
<!-- 06e22867&#45;40a8&#45;4602&#45;8173&#45;d23e94fc6b58&#45;&gt;end -->
<g id="edge3" class="edge">
<title>06e22867&#45;40a8&#45;4602&#45;8173&#45;d23e94fc6b58&#45;&gt;end</title>
<path fill="none" stroke="black" d="M673.13,-26.87C692.65,-26.87 709.45,-26.87 719.74,-26.87"/>
<polygon fill="black" stroke="black" points="719.86,-30.37 729.86,-26.87 719.86,-23.37 719.86,-30.37"/>
<text text-anchor="middle" x="701.44" y="-33.67" font-family="Helvetica,sans-Serif" font-size="14.00">Finish</text>
</g>
</g>
</svg>
