<?xml version="1.0" encoding="UTF-8" standalone="no"?>
<!DOCTYPE svg PUBLIC "-//W3C//DTD SVG 1.1//EN"
 "http://www.w3.org/Graphics/SVG/1.1/DTD/svg11.dtd">
<!-- Generated by graphviz version 2.43.0 (0)
 -->
<!-- Title: %3 Pages: 1 -->
<svg width="1300pt" height="165pt"
 viewBox="0.00 0.00 1300.00 164.74" xmlns="http://www.w3.org/2000/svg" xmlns:xlink="http://www.w3.org/1999/xlink">
<g id="graph0" class="graph" transform="scale(1 1) rotate(0) translate(36 128.74)">
<title>%3</title>
<polygon fill="dimgray" stroke="transparent" points="-36,36 -36,-128.74 1264,-128.74 1264,36 -36,36"/>
<text text-anchor="middle" x="614" y="-77.54" font-family="Helvetica,sans-Serif" font-size="14.00">Sweep&#39;s Plan &amp; Progress</text>
<!-- start -->
<g id="node1" class="node">
<title>start</title>
</g>
<!-- 762c77df&#45;9a79&#45;4c3e&#45;b9b1&#45;68ff836672fe -->
<g id="node3" class="node">
<title>762c77df&#45;9a79&#45;4c3e&#45;b9b1&#45;68ff836672fe</title>
<ellipse fill="yellow" stroke="black" cx="198.5" cy="-26.87" rx="146.24" ry="26.74"/>
<text text-anchor="middle" x="198.5" y="-30.67" font-family="Helvetica,sans-Serif" font-size="14.00">⋯ Modify</text>
<text text-anchor="middle" x="198.5" y="-15.67" font-family="Helvetica,sans-Serif" font-size="14.00">cypress/e2e/basic_test.cy.js</text>
</g>
<!-- start&#45;&gt;762c77df&#45;9a79&#45;4c3e&#45;b9b1&#45;68ff836672fe -->
<g id="edge3" class="edge">
<title>start&#45;&gt;762c77df&#45;9a79&#45;4c3e&#45;b9b1&#45;68ff836672fe</title>
<path fill="none" stroke="black" d="M1.07,-26.87C4.22,-26.87 20.16,-26.87 41.72,-26.87"/>
<polygon fill="black" stroke="black" points="42.01,-30.37 52.01,-26.87 42.01,-23.37 42.01,-30.37"/>
<text text-anchor="middle" x="26.56" y="-33.67" font-family="Helvetica,sans-Serif" font-size="14.00">Start</text>
</g>
<!-- end -->
<g id="node2" class="node">
<title>end</title>
</g>
<!-- d3c8b51e&#45;b6a9&#45;40fb&#45;908c&#45;5167145187fc -->
<g id="node4" class="node">
<title>d3c8b51e&#45;b6a9&#45;40fb&#45;908c&#45;5167145187fc</title>
<ellipse fill="white" stroke="black" cx="547.5" cy="-26.87" rx="166.75" ry="26.74"/>
<text text-anchor="middle" x="547.5" y="-30.67" font-family="Helvetica,sans-Serif" font-size="14.00">▶ Modify</text>
<text text-anchor="middle" x="547.5" y="-15.67" font-family="Helvetica,sans-Serif" font-size="14.00">cypress/e2e/rate_limit_test.cy.js</text>
</g>
<!-- 762c77df&#45;9a79&#45;4c3e&#45;b9b1&#45;68ff836672fe&#45;&gt;d3c8b51e&#45;b6a9&#45;40fb&#45;908c&#45;5167145187fc -->
<g id="edge1" class="edge">
<title>762c77df&#45;9a79&#45;4c3e&#45;b9b1&#45;68ff836672fe&#45;&gt;d3c8b51e&#45;b6a9&#45;40fb&#45;908c&#45;5167145187fc</title>
<path fill="none" stroke="black" d="M345.05,-26.87C353.39,-26.87 361.73,-26.87 370.07,-26.87"/>
<polygon fill="black" stroke="black" points="370.24,-30.37 380.24,-26.87 370.24,-23.37 370.24,-30.37"/>
</g>
<!-- 96ef697d&#45;6eab&#45;4fd2&#45;809a&#45;8df9414d6c6b -->
<g id="node5" class="node">
<title>96ef697d&#45;6eab&#45;4fd2&#45;809a&#45;8df9414d6c6b</title>
<ellipse fill="white" stroke="black" cx="959.5" cy="-26.87" rx="210.02" ry="26.74"/>
<text text-anchor="middle" x="959.5" y="-30.67" font-family="Helvetica,sans-Serif" font-size="14.00">▶ Create</text>
<text text-anchor="middle" x="959.5" y="-15.67" font-family="Helvetica,sans-Serif" font-size="14.00">cypress/e2e/copy_functionality_test.cy.js</text>
</g>
<!-- d3c8b51e&#45;b6a9&#45;40fb&#45;908c&#45;5167145187fc&#45;&gt;96ef697d&#45;6eab&#45;4fd2&#45;809a&#45;8df9414d6c6b -->
<g id="edge2" class="edge">
<title>d3c8b51e&#45;b6a9&#45;40fb&#45;908c&#45;5167145187fc&#45;&gt;96ef697d&#45;6eab&#45;4fd2&#45;809a&#45;8df9414d6c6b</title>
<path fill="none" stroke="black" d="M714.47,-26.87C722.75,-26.87 731.03,-26.87 739.31,-26.87"/>
<polygon fill="black" stroke="black" points="739.41,-30.37 749.41,-26.87 739.41,-23.37 739.41,-30.37"/>
</g>
<!-- 96ef697d&#45;6eab&#45;4fd2&#45;809a&#45;8df9414d6c6b&#45;&gt;end -->
<g id="edge4" class="edge">
<title>96ef697d&#45;6eab&#45;4fd2&#45;809a&#45;8df9414d6c6b&#45;&gt;end</title>
<path fill="none" stroke="black" d="M1169.68,-26.87C1189.74,-26.87 1206.39,-26.87 1216.59,-26.87"/>
<polygon fill="black" stroke="black" points="1216.88,-30.37 1226.88,-26.87 1216.88,-23.37 1216.88,-30.37"/>
<text text-anchor="middle" x="1198.26" y="-33.67" font-family="Helvetica,sans-Serif" font-size="14.00">Finish</text>
</g>
</g>
</svg>
